# xmcd
#
# Track frame offsets: 
#        150
#        13625
#        41825
#        60084
#        81596
#        98972
#        118230
#        141658
#        160242
#        188142
#        208756
#
# Disc length: 2975 seconds
#
# Revision: 0
# Processed by: cddbd v1.5.2PL0 Copyright (c) Steve Scherf et al.
# Submitted via: ExactAudioCopy v0.95b3
#
DISCID=9f0b9d0b
DTITLE=Ismael Serrano - Atrapados en azul
DYEAR=1997
DGENRE=Blues
TTITLE0=Papá cuéntame otra vez
TTITLE1=Vértigo
TTITLE2=Donde estarás
TTITLE3=Caperucita
TTITLE4=Yo quiero ser muy promiscuo
TTITLE5=Amo tanto la vida
TTITLE6=La extraña pareja
TTITLE7=El camino de regreso
TTITLE8=México insurgente
TTITLE9=Un muerto encierras
TTITLE10=Atrapados en azul
EXTD=
EXTT0=
EXTT1=
EXTT2=
EXTT3=
EXTT4=
EXTT5=
EXTT6=
EXTT7=
EXTT8=
EXTT9=
EXTT10=
PLAYORDER=
